<?xml version="1.0" encoding="utf-8"?>
<!-- Generator: Adobe Illustrator 19.0.0, SVG Export Plug-In . SVG Version: 6.00 Build 0)  -->
<svg version="1.1" id="Layer_1" xmlns="http://www.w3.org/2000/svg" xmlns:xlink="http://www.w3.org/1999/xlink" x="0px" y="0px"
	 viewBox="-390 268.28 60 60" style="enable-background:new -390 268.28 60 60;" xml:space="preserve">
<style type="text/css">
	.st0{display:none;}
	.st1{display:inline;opacity:0.1;}
	.st2{opacity:0.4;fill:none;stroke:#000000;stroke-width:0.1;stroke-miterlimit:10;enable-background:new    ;}
	.st3{opacity:0.1;fill:none;stroke:#000000;stroke-width:0.1;stroke-miterlimit:10;enable-background:new    ;}
	.st4{fill:none;stroke:#000000;stroke-width:0.2;stroke-miterlimit:10;}
	.st5{display:inline;opacity:0.3;}
	.st6{display:inline;opacity:0.1;fill:none;stroke:#000000;stroke-width:0.2;stroke-miterlimit:10;enable-background:new    ;}
	.st7{display:inline;opacity:0.6;}
	.st8{fill:#00B28E;}
	.st9{fill:#AC4142;}
</style>
<g id="Grid" class="st0">
	<g id="Keylines" class="st1">
		<g>
			<line class="st2" x1="-414" y1="244.28" x2="-306" y2="352.28"/>
			<line class="st3" x1="-306" y1="244.28" x2="-414" y2="352.28"/>
		</g>
		<g>
			<line class="st4" x1="-414" y1="244.28" x2="-306" y2="352.28"/>
			<line class="st4" x1="-306" y1="244.28" x2="-414" y2="352.28"/>
		</g>
	</g>
	<g id="Circle" class="st5">
		<g>
			<path d="M-360,272.58c14.171,0,25.7,11.529,25.7,25.7s-11.529,25.7-25.7,25.7s-25.7-11.529-25.7-25.7S-374.171,272.58-360,272.58
				 M-360,272.28c-14.359,0-26,11.641-26,26s11.641,26,26,26s26-11.641,26-26S-345.641,272.28-360,272.28L-360,272.28z"/>
		</g>
	</g>
	<g id="Inner_Circle" class="st5">
		<g>
			<path d="M-360,280.58c9.76,0,17.7,7.94,17.7,17.7s-7.94,17.7-17.7,17.7s-17.7-7.94-17.7-17.7S-369.76,280.58-360,280.58
				 M-360,280.28c-9.941,0-18,8.059-18,18s8.059,18,18,18s18-8.059,18-18S-350.059,280.28-360,280.28L-360,280.28z"/>
		</g>
	</g>
	<path id="Horizontal_Rectangle" class="st6" d="M-338,316.28h-44c-2.209,0-4-1.791-4-4v-28c0-2.209,1.791-4,4-4h44
		c2.209,0,4,1.791,4,4v28C-334,314.489-335.791,316.28-338,316.28z"/>
	<path id="Vertical_Rectangle" class="st6" d="M-378,320.28v-44c0-2.209,1.791-4,4-4h28c2.209,0,4,1.791,4,4v44c0,2.209-1.791,4-4,4
		h-28C-376.209,324.28-378,322.489-378,320.28z"/>
	<path id="Square" class="st6" d="M-342,320.28h-36c-2.2,0-4-1.8-4-4v-36c0-2.2,1.8-4,4-4h36c2.2,0,4,1.8,4,4v36
		C-338,318.48-339.8,320.28-342,320.28z"/>
	<g id="Circular_Mask__x28_Pixel_x29_" class="st7">
		<g>
			<path class="st8" d="M-360,262.88c19.52,0,35.4,15.88,35.4,35.4c0,19.52-15.88,35.4-35.4,35.4s-35.4-15.88-35.4-35.4
				S-379.52,262.88-360,262.88 M-360,262.28c-19.882,0-36,16.118-36,36s16.118,36,36,36s36-16.118,36-36S-340.118,262.28-360,262.28
				L-360,262.28z"/>
		</g>
	</g>
</g>
<path class="st9" d="M-340.283,291.961c1.624-1.27,2.624-2.87,2.676-4.28c0.003-0.084,0.005-0.167,0.005-0.249
	c0-2.123-0.972-4.077-2.97-5.975c-0.024-0.022-0.048-0.044-0.073-0.066c-0.055-0.713-0.23-1.336-0.523-1.858
	c-1.146-2.045-5.467-2.955-7.94-3.315c-1.794-0.261-6.124-0.721-9.586,0.271c-1.029-0.38-3.455-0.665-9.491,2.603
	c-2.228-1.145-4.994,1.155-7.421,3.582c-2.72,2.72-3.88,4.553-3.88,6.131c0,0.458,0.103,0.898,0.3,1.29
	c-1.401,2.591-2.824,5.777-2.824,8.024c0,0.531,0.076,1.017,0.224,1.451c-0.407,1.414-0.612,3.121-0.612,5.09
	c0,3.395,0.892,10.905,3.653,12.453c0.52,0.292,1.14,0.465,1.855,0.52c0.022,0.025,0.044,0.051,0.068,0.076
	c1.973,2.078,4.009,3.047,6.225,2.965c2.568-0.096,6.01-3.681,6.01-7.217c0-0.369-0.037-0.734-0.111-1.085
	c-0.054-0.258-0.16-0.496-0.307-0.701c1.026-1.602,1.421-3.126,1.563-4.211c0.649-0.337,1.317-0.936,2.055-1.842
	c1.613-0.098,2.777-1.263,4.817-3.306l0.601-0.601c2.044-2.041,3.21-3.205,3.307-4.819c0.909-0.74,1.509-1.41,1.846-2.061
	c1.094-0.146,2.615-0.542,4.206-1.558c0.206,0.147,0.443,0.254,0.703,0.308C-344.126,293.954-342.076,293.363-340.283,291.961z
	 M-340.404,287.578c-0.017,0.461-0.585,1.382-1.604,2.178c-0.878,0.687-1.83,1.085-2.661,1.13l-0.052-0.574
	c1.124-1.509,2.312-3.935,2.854-6.171C-340.843,285.297-340.361,286.425-340.404,287.578z M-343.61,280.903
	c0.136,0.242,0.198,0.584,0.198,0.993c0,2.235-1.833,6.511-3.401,7.992c-1.756,1.659-3.53,2.092-4.531,2.196
	c-0.199-4.028-2.84-10.175-5.581-13.146C-351.799,277.945-344.229,279.807-343.61,280.903z M-367.394,313.612
	c-0.046,0.831-0.443,1.782-1.13,2.66c-0.797,1.018-1.717,1.587-2.179,1.604c-1.15,0.043-2.28-0.439-3.437-1.463
	c2.236-0.542,4.661-1.73,6.17-2.854L-367.394,313.612z M-366.196,306.936c-0.104,0.999-0.538,2.777-2.196,4.531
	c-1.753,1.855-7.418,4.081-8.985,3.203c-1.096-0.62-2.959-8.189-1.965-13.315C-376.371,304.096-370.224,306.738-366.196,306.936z
	 M-364.792,305.001c-3.585,0.745-12.814-3.288-14.31-6.254c-0.51-1.009,0.681-4.177,2.323-7.24c2.236,2.285,6.114,5.83,6.678,6.344
	c3.516,3.205,5.515,4.908,6.687,5.813C-364.002,304.412-364.522,304.935-364.792,305.001z M-355.477,296.821
	c-0.149,0.588-1.097,1.535-2.472,2.907l-0.281,0.281c-0.002,0.002-0.003,0.003-0.005,0.005l-0.035,0.035l-0.283,0.283
	c-1.372,1.374-2.318,2.321-2.906,2.471c-1.93-1.205-14.357-12.586-15.224-13.96c-0.002-0.011-0.203-0.929,3.057-4.189
	c3.243-3.243,4.172-3.062,4.172-3.066C-368.063,282.464-356.682,294.891-355.477,296.821z M-353.279,293.487
	c-0.067,0.27-0.589,0.79-1.337,1.379c-0.905-1.172-2.608-3.171-5.813-6.687c-0.514-0.564-4.059-4.443-6.344-6.679
	c3.063-1.643,6.232-2.832,7.241-2.323c2.723,1.374,6.344,9.263,6.344,13.321C-353.189,292.861-353.218,293.194-353.279,293.487z"/>
</svg>
