<?xml version="1.0" encoding="utf-8"?>
<!-- Generator: Adobe Illustrator 19.0.0, SVG Export Plug-In . SVG Version: 6.00 Build 0)  -->
<svg version="1.1" id="Layer_1" xmlns="http://www.w3.org/2000/svg" xmlns:xlink="http://www.w3.org/1999/xlink" x="0px" y="0px"
	 width="60px" height="60px" viewBox="-289 539 60 60" style="enable-background:new -289 539 60 60;" xml:space="preserve">
<style type="text/css">
	.st0{display:none;}
	.st1{display:inline;opacity:0.1;}
	.st2{opacity:0.4;fill:none;stroke:#000000;stroke-width:0.1;stroke-miterlimit:10;enable-background:new    ;}
	.st3{opacity:0.1;fill:none;stroke:#000000;stroke-width:0.1;stroke-miterlimit:10;enable-background:new    ;}
	.st4{fill:none;stroke:#000000;stroke-width:0.2;stroke-miterlimit:10;}
	.st5{display:inline;opacity:0.3;}
	.st6{display:inline;opacity:0.1;fill:none;stroke:#000000;stroke-width:0.2;stroke-miterlimit:10;enable-background:new    ;}
	.st7{display:inline;opacity:0.6;}
	.st8{fill:#00B28E;}
	.st9{fill:#AC4142;}
</style>
<g id="Grid" class="st0">
	<g id="Keylines" class="st1">
		<g>
			<line class="st2" x1="-703" y1="783.3" x2="-595" y2="891.3"/>
			<line class="st3" x1="-595" y1="783.3" x2="-703" y2="891.3"/>
		</g>
		<g>
			<line class="st4" x1="-703" y1="783.3" x2="-595" y2="891.3"/>
			<line class="st4" x1="-595" y1="783.3" x2="-703" y2="891.3"/>
		</g>
	</g>
	<g id="Circle" class="st5">
		<g>
			<path d="M-649,811.6c14.2,0,25.7,11.5,25.7,25.7S-634.8,863-649,863s-25.7-11.5-25.7-25.7S-663.2,811.6-649,811.6 M-649,811.3
				c-14.4,0-26,11.6-26,26s11.6,26,26,26s26-11.6,26-26S-634.6,811.3-649,811.3L-649,811.3z"/>
		</g>
	</g>
	<g id="Inner_Circle" class="st5">
		<g>
			<path d="M-649,819.6c9.8,0,17.7,7.9,17.7,17.7S-639.2,855-649,855s-17.7-7.9-17.7-17.7S-658.8,819.6-649,819.6 M-649,819.3
				c-9.9,0-18,8.1-18,18s8.1,18,18,18s18-8.1,18-18S-639.1,819.3-649,819.3L-649,819.3z"/>
		</g>
	</g>
	<path id="Horizontal_Rectangle" class="st6" d="M-627,855.3h-44c-2.2,0-4-1.8-4-4v-28c0-2.2,1.8-4,4-4h44c2.2,0,4,1.8,4,4v28
		C-623,853.5-624.8,855.3-627,855.3z"/>
	<path id="Vertical_Rectangle" class="st6" d="M-667,859.3v-44c0-2.2,1.8-4,4-4h28c2.2,0,4,1.8,4,4v44c0,2.2-1.8,4-4,4h-28
		C-665.2,863.3-667,861.5-667,859.3z"/>
	<path id="Square" class="st6" d="M-631,859.3h-36c-2.2,0-4-1.8-4-4v-36c0-2.2,1.8-4,4-4h36c2.2,0,4,1.8,4,4v36
		C-627,857.5-628.8,859.3-631,859.3z"/>
	<g id="Circular_Mask__x28_Pixel_x29_" class="st7">
		<g>
			<path class="st8" d="M-649,801.9c19.5,0,35.4,15.9,35.4,35.4s-15.9,35.4-35.4,35.4s-35.4-15.9-35.4-35.4S-668.5,801.9-649,801.9
				 M-649,801.3c-19.9,0-36,16.1-36,36s16.1,36,36,36s36-16.1,36-36S-629.1,801.3-649,801.3L-649,801.3z"/>
		</g>
	</g>
</g>
<g>
	<path class="st9" d="M-246.5,566.6c-0.6,0-1.1-0.5-1.1-1.1c0-0.2,0-0.4,0.1-0.5c1.1-2.1,1.7-4.5,1.7-6.9c0-0.6,0.5-1.1,1.1-1.1
		s1.1,0.5,1.1,1.1c0,2.7-0.7,5.5-1.9,7.9C-245.7,566.3-246.1,566.6-246.5,566.6L-246.5,566.6z"/>
	<path class="st9" d="M-246.5,566.9c-0.8,0-1.5-0.7-1.5-1.5c0-0.2,0.1-0.5,0.2-0.7c1.1-2.1,1.6-4.4,1.6-6.7c0-0.8,0.7-1.5,1.5-1.5
		s1.5,0.7,1.5,1.5c0,2.8-0.7,5.6-2,8.1C-245.4,566.6-245.9,566.9-246.5,566.9L-246.5,566.9z"/>
	<path class="st9" d="M-246.5,566.6c-0.6,0-1.2-0.5-1.2-1.2c0-0.2,0-0.4,0.1-0.5c1.1-2.1,1.7-4.5,1.7-6.8c0-0.6,0.5-1.2,1.2-1.2
		c0.6,0,1.2,0.5,1.2,1.2c0,2.7-0.7,5.5-1.9,7.9C-245.7,566.4-246.1,566.6-246.5,566.6L-246.5,566.6z"/>
	<path class="st9" d="M-246.5,566.2c-0.4,0-0.8-0.4-0.8-0.8c0-0.1,0-0.3,0.1-0.4c1.1-2.2,1.7-4.6,1.7-7c0-0.4,0.4-0.8,0.8-0.8
		s0.8,0.4,0.8,0.8c0,2.7-0.7,5.4-1.9,7.7C-246,566.1-246.2,566.2-246.5,566.2z"/>
	<path class="st9" d="M-266.1,587c-0.6,0-1.1-0.5-1.1-1.1v-7.3c0-2.9-2-5.6-2-5.6c-0.4-0.5-0.3-1.2,0.2-1.6c0.2-0.2,0.4-0.2,0.7-0.2
		c0.4,0,0.7,0.2,0.9,0.4c1.5,2.1,2.4,4.5,2.5,7l0,6.2h10v-6.5c-0.1-2.4,0.5-4.8,1.7-7c0.2-0.4,0.6-0.7,1-0.7c0.1,0,0.2,0,0.3,0
		c0.3,0.1,0.6,0.4,0.8,0.7c0.1,0.3,0.1,0.7-0.1,1c-1,1.8-1.5,3.8-1.4,5.9v7.7c0,0.6-0.5,1.1-1.1,1.1H-266.1z"/>
	<path class="st9" d="M-266.1,587.3c-0.8,0-1.5-0.7-1.5-1.5v-7.3c0-2.8-1.9-5.4-2-5.4c-0.2-0.3-0.3-0.7-0.3-1.1
		c0.1-0.4,0.3-0.8,0.6-1c0.3-0.2,0.6-0.3,0.9-0.3c0.5,0,0.9,0.2,1.2,0.6c1.5,2.1,2.4,4.6,2.6,7.2l0,5.9h9.2v-6.1
		c-0.1-2.5,0.5-5,1.7-7.2c0.2-0.5,0.8-0.9,1.4-0.9c0.1,0,0.3,0,0.4,0.1c0.5,0.1,0.8,0.5,1,0.9c0.2,0.4,0.1,1-0.1,1.4
		c-0.9,1.7-1.4,3.7-1.3,5.7v7.7c0,0.8-0.7,1.5-1.5,1.5H-266.1z"/>
	<path class="st9" d="M-266.1,587c-0.6,0-1.2-0.5-1.2-1.2v-7.3c0-2.9-2-5.6-2-5.6c-0.2-0.2-0.3-0.5-0.2-0.8c0-0.3,0.2-0.6,0.4-0.8
		c0.2-0.2,0.4-0.2,0.7-0.2c0.4,0,0.7,0.2,0.9,0.5c1.5,2.1,2.4,4.5,2.5,7l0,6.2h10v-6.5c-0.1-2.4,0.5-4.9,1.7-7
		c0.2-0.4,0.6-0.7,1-0.7c0.1,0,0.2,0,0.3,0c0.4,0.1,0.6,0.4,0.8,0.7c0.1,0.3,0.1,0.7-0.1,1c-1,1.8-1.5,3.8-1.4,5.9v7.7
		c0,0.6-0.5,1.2-1.2,1.2H-266.1z"/>
	<path class="st9" d="M-253.8,586.6h-12.3c-0.4,0-0.8-0.4-0.8-0.8v-7.3c0-3-2-5.7-2.1-5.8c-0.3-0.3-0.2-0.8,0.2-1.1
		c0.3-0.3,0.8-0.2,1.1,0.2c0,0,0,0,0,0c1.4,2,2.3,4.3,2.4,6.8v6.5h10.7v-6.9c0-2.4,0.5-4.7,1.6-6.8c0.1-0.4,0.6-0.6,0.9-0.5
		c0.2,0.1,0.4,0.2,0.5,0.5c0.1,0.2,0.1,0.5-0.1,0.7c-1,1.9-1.5,4-1.5,6.1v7.7C-253,586.3-253.4,586.6-253.8,586.6z"/>
	<path class="st9" d="M-275,566.6c-0.4,0-0.8-0.2-1-0.6c-1.3-2.4-1.9-5.2-1.9-7.9c0-0.6,0.5-1.1,1.1-1.1s1.1,0.5,1.1,1.1
		c0,2.4,0.6,4.7,1.7,6.9c0.3,0.6,0.1,1.2-0.5,1.5C-274.6,566.5-274.8,566.6-275,566.6L-275,566.6z"/>
	<path class="st9" d="M-275,566.9c-0.6,0-1.1-0.3-1.3-0.8c-1.3-2.5-2-5.3-2-8.1c0-0.8,0.7-1.5,1.5-1.5s1.5,0.7,1.5,1.5
		c0,2.3,0.6,4.6,1.6,6.7c0.4,0.7,0.1,1.7-0.6,2C-274.5,566.9-274.7,566.9-275,566.9z"/>
	<path class="st9" d="M-275,566.6c-0.4,0-0.8-0.2-1-0.6c-1.3-2.4-1.9-5.2-1.9-7.9c0-0.6,0.5-1.2,1.2-1.2s1.2,0.5,1.2,1.2
		c0,2.4,0.6,4.7,1.7,6.8c0.3,0.6,0.1,1.3-0.5,1.6C-274.6,566.5-274.8,566.6-275,566.6z"/>
	<path class="st9" d="M-275,566.2c-0.3,0-0.6-0.2-0.7-0.4c-1.2-2.4-1.9-5-1.9-7.7c0-0.4,0.4-0.8,0.8-0.8c0.4,0,0.8,0.4,0.8,0.8
		c0,2.4,0.6,4.8,1.7,7c0.2,0.4,0.1,0.9-0.3,1.1C-274.7,566.2-274.8,566.2-275,566.2z"/>
	<path class="st9" d="M-249.7,568.9c-0.3,0-0.6-0.2-0.7-0.5l-4.5-9.7l-10.9-0.8c-0.3,0-0.5-0.2-0.6-0.4l-5.7-11.1
		c-0.2-0.3-0.1-0.7,0.2-0.9c6.3-5.6,15.7-5.8,22.1-0.3c0.3,0.3,0.3,0.8,0.1,1.1c-0.3,0.3-0.8,0.3-1.1,0.1
		c-5.6-4.8-13.9-4.8-19.6-0.1l5.3,10.1l10.9,0.8c0.3,0,0.5,0.2,0.7,0.5l4.7,10.1c0.2,0.4,0,0.9-0.4,1
		C-249.5,568.9-249.6,568.9-249.7,568.9L-249.7,568.9z"/>
	<path class="st9" d="M-272.4,546.7c-0.2-0.5-0.1-1,0.2-1.4c3.2-2.8,7.2-4.4,11.5-4.4c4.1,0,8,1.4,11.1,4.1c0.2,0.2,0.4,0.5,0.4,0.8
		c0,0.3-0.1,0.6-0.3,0.8c-0.2,0.2-0.5,0.4-0.8,0.4c-0.3,0-0.5-0.1-0.7-0.2c-2.7-2.3-6.1-3.5-9.6-3.5c-3.4,0-6.7,1.2-9.4,3.3
		l-0.1,0.1l-0.2,0.2l-0.1,0.1l-0.2,0.1c-0.3,0.2-0.6,0.3-0.7,0.6l-0.3,0.5L-272.4,546.7z"/>
	<path class="st9" d="M-272.8,546.8c-0.3-0.6-0.2-1.4,0.3-1.8c3.2-2.9,7.4-4.5,11.7-4.5c4.2,0,8.2,1.5,11.4,4.2
		c0.6,0.6,0.7,1.5,0.1,2.1c-0.3,0.3-0.7,0.5-1.1,0.5c-0.3,0-0.7-0.1-0.9-0.3c-2.6-2.2-6-3.5-9.4-3.5c-3.3,0-6.6,1.1-9.1,3.2l0,0.1
		c-0.1,0.1-0.2,0.2-0.2,0.2l-0.1,0.1l-0.3,0.2c-0.3,0.2-0.5,0.3-0.6,0.5l-0.7,1L-272.8,546.8z"/>
	<path class="st9" d="M-272.5,546.7c-0.2-0.5-0.1-1,0.3-1.4c3.2-2.8,7.2-4.4,11.5-4.4c4.1,0,8,1.4,11.1,4.1c0.5,0.4,0.5,1.2,0.1,1.6
		c-0.2,0.2-0.5,0.4-0.9,0.4c-0.3,0-0.5-0.1-0.7-0.3c-2.7-2.3-6.1-3.5-9.6-3.5c-3.4,0-6.7,1.2-9.4,3.3l-0.1,0.1
		c-0.1,0.1-0.2,0.2-0.2,0.2l-0.1,0.1l-0.2,0.1c-0.3,0.2-0.6,0.3-0.7,0.6l-0.3,0.5L-272.5,546.7z"/>
	<path class="st9" d="M-270.7,546.6c0.1-0.1,0.1-0.1,0.2-0.2c0,0,0,0,0,0l0,0c5.7-4.7,13.9-4.7,19.6,0.1c0.3,0.3,0.8,0.2,1.1-0.1
		c0.3-0.3,0.3-0.8-0.1-1.1c-6.4-5.4-15.9-5.3-22.1,0.3c-0.3,0.2-0.3,0.6-0.2,0.9l0.4,0.8C-271.5,547-271,546.8-270.7,546.6z"/>
	<path class="st9" d="M-254.4,579.4h-11.3c-0.4,0-0.8-0.4-0.8-0.8c0-0.4,0.4-0.8,0.8-0.8h11.3c0.4,0,0.8,0.4,0.8,0.8
		C-253.6,579-253.9,579.4-254.4,579.4z"/>
	<path class="st9" d="M-258.1,589.6h-3.9c-0.4,0-0.8-0.4-0.8-0.8v-3c0-0.4,0.4-0.8,0.8-0.8c0.4,0,0.8,0.4,0.8,0.8v2.2h2.3v-2.2
		c0-0.4,0.4-0.8,0.8-0.8c0.4,0,0.8,0.4,0.8,0.8v3C-257.3,589.3-257.7,589.6-258.1,589.6C-258.1,589.6-258.1,589.6-258.1,589.6z"/>
	<path class="st9" d="M-273.8,557c-0.2,0-0.4-0.1-0.5-0.2l-4.9-4.5c-0.1-0.1-0.2-0.3-0.3-0.5l-0.4-4.5c0-0.4,0.3-0.8,0.7-0.9
		c0.2,0,0.4,0,0.5,0.1l8.3,5.8c0.4,0.3,0.4,0.7,0.2,1.1c0,0,0,0.1-0.1,0.1l-3,3.1C-273.4,556.9-273.6,557-273.8,557z M-278,551.4
		l4.1,3.7l1.8-1.9l-6.1-4.3L-278,551.4z"/>
	<path class="st9" d="M-244.7,551.3c-0.2,0-0.5-0.1-0.6-0.3l-1.8-2.4c-0.2-0.3-0.2-0.8,0.1-1l5.4-5.4c0.3-0.3,0.8-0.3,1.1,0
		c0.1,0.1,0.2,0.3,0.2,0.4l0.9,4.7c0.1,0.3-0.1,0.6-0.3,0.8l-4.5,3C-244.4,551.2-244.6,551.3-244.7,551.3z M-245.5,548.2l0.9,1.2
		l3.4-2.3l-0.5-2.8L-245.5,548.2z"/>
	<path class="st9" d="M-278.6,575c-0.4,0-0.8-0.4-0.8-0.8c0-0.2,0.1-0.4,0.2-0.5l3.7-4.6c0.1-0.1,0.2-0.2,0.3-0.2l5.3-2.3
		c0.4-0.2,0.9,0,1,0.4c0.1,0.3,0.1,0.6-0.1,0.8l-4.6,5.9c-0.1,0.1-0.3,0.2-0.4,0.3l-4.5,1C-278.5,575-278.5,575-278.6,575z
		 M-274.4,570.3l-2.1,2.6l1.9-0.5l2.5-3.2L-274.4,570.3z"/>
	<path class="st9" d="M-242.9,576.6c-0.1,0-0.2,0-0.3,0l-5.8-2.1c-0.4-0.2-0.6-0.6-0.5-1c0-0.1,0.1-0.2,0.2-0.3l3.9-4.1
		c0.2-0.3,0.6-0.3,0.9-0.1l5.8,3.1c0.4,0.2,0.5,0.7,0.3,1.1c-0.1,0.1-0.1,0.2-0.2,0.2l-4,3.1C-242.5,576.5-242.7,576.6-242.9,576.6z
		 M-247.2,573.4l4.2,1.6l2.7-2.1l-4.2-2.3L-247.2,573.4z"/>
</g>
</svg>
