<?xml version="1.0" encoding="utf-8"?>
<!-- Generator: Adobe Illustrator 19.0.0, SVG Export Plug-In . SVG Version: 6.00 Build 0)  -->
<svg version="1.1" id="Layer_1" xmlns="http://www.w3.org/2000/svg" xmlns:xlink="http://www.w3.org/1999/xlink" x="0px" y="0px"
	 viewBox="-390 268.28 60 60" style="enable-background:new -390 268.28 60 60;" xml:space="preserve">
<style type="text/css">
	.st0{display:none;}
	.st1{display:inline;opacity:0.1;}
	.st2{opacity:0.4;fill:none;stroke:#000000;stroke-width:0.1;stroke-miterlimit:10;enable-background:new    ;}
	.st3{opacity:0.1;fill:none;stroke:#000000;stroke-width:0.1;stroke-miterlimit:10;enable-background:new    ;}
	.st4{fill:none;stroke:#000000;stroke-width:0.2;stroke-miterlimit:10;}
	.st5{display:inline;opacity:0.3;}
	.st6{display:inline;opacity:0.1;fill:none;stroke:#000000;stroke-width:0.2;stroke-miterlimit:10;enable-background:new    ;}
	.st7{display:inline;opacity:0.6;}
	.st8{fill:#00B28E;}
	.st9{fill:#AC4142;}
</style>
<g id="Grid" class="st0">
	<g id="Keylines" class="st1">
		<g>
			<line class="st2" x1="-414" y1="244.28" x2="-306" y2="352.28"/>
			<line class="st3" x1="-306" y1="244.28" x2="-414" y2="352.28"/>
		</g>
		<g>
			<line class="st4" x1="-414" y1="244.28" x2="-306" y2="352.28"/>
			<line class="st4" x1="-306" y1="244.28" x2="-414" y2="352.28"/>
		</g>
	</g>
	<g id="Circle" class="st5">
		<g>
			<path d="M-360,272.58c14.171,0,25.7,11.529,25.7,25.7s-11.529,25.7-25.7,25.7s-25.7-11.529-25.7-25.7S-374.171,272.58-360,272.58
				 M-360,272.28c-14.359,0-26,11.641-26,26s11.641,26,26,26s26-11.641,26-26S-345.641,272.28-360,272.28L-360,272.28z"/>
		</g>
	</g>
	<g id="Inner_Circle" class="st5">
		<g>
			<path d="M-360,280.58c9.76,0,17.7,7.94,17.7,17.7s-7.94,17.7-17.7,17.7s-17.7-7.94-17.7-17.7S-369.76,280.58-360,280.58
				 M-360,280.28c-9.941,0-18,8.059-18,18s8.059,18,18,18s18-8.059,18-18S-350.059,280.28-360,280.28L-360,280.28z"/>
		</g>
	</g>
	<path id="Horizontal_Rectangle" class="st6" d="M-338,316.28h-44c-2.209,0-4-1.791-4-4v-28c0-2.209,1.791-4,4-4h44
		c2.209,0,4,1.791,4,4v28C-334,314.489-335.791,316.28-338,316.28z"/>
	<path id="Vertical_Rectangle" class="st6" d="M-378,320.28v-44c0-2.209,1.791-4,4-4h28c2.209,0,4,1.791,4,4v44c0,2.209-1.791,4-4,4
		h-28C-376.209,324.28-378,322.489-378,320.28z"/>
	<path id="Square" class="st6" d="M-342,320.28h-36c-2.2,0-4-1.8-4-4v-36c0-2.2,1.8-4,4-4h36c2.2,0,4,1.8,4,4v36
		C-338,318.48-339.8,320.28-342,320.28z"/>
	<g id="Circular_Mask__x28_Pixel_x29_" class="st7">
		<g>
			<path class="st8" d="M-360,262.88c19.52,0,35.4,15.88,35.4,35.4c0,19.52-15.88,35.4-35.4,35.4s-35.4-15.88-35.4-35.4
				S-379.52,262.88-360,262.88 M-360,262.28c-19.882,0-36,16.118-36,36s16.118,36,36,36s36-16.118,36-36S-340.118,262.28-360,262.28
				L-360,262.28z"/>
		</g>
	</g>
</g>
<path class="st9" d="M-333.981,314.085l-10.757-21.061c-0.554-1.163-1.608-1.809-2.717-1.809c-1.109,0-2.162,0.646-2.717,1.809
	l-2.218,4.328l-4.879-9.561c-0.665-1.357-1.83-2.132-3.16-2.132c-1.275,0-2.495,0.84-3.16,2.132l-6.321,12.404l-1.996-3.941
	c-0.499-1.034-1.442-1.615-2.44-1.615c-0.998,0-1.941,0.581-2.44,1.615l-9.26,18.154c-0.277,0.646-0.277,1.357-0.111,1.938
	c0.277,0.646,0.887,1.034,1.497,1.034h49.014c0.721,0,1.331-0.388,1.663-1.098C-333.648,315.571-333.648,314.796-333.981,314.085z
	 M-372.793,302.909l-1.275,1.744l-1.552-2.907l-4.269,4.716l4.713-9.238c0.166-0.388,0.555-0.646,0.943-0.646
	s0.721,0.258,0.943,0.646l4.547,8.915L-372.793,302.909z M-360.04,299.614l-2.162-4.199l-6.543,6.977l-0.166-0.323l6.82-13.309
	c0.388-0.711,0.998-1.163,1.719-1.163c0.721,0,1.331,0.452,1.719,1.163l5.378,10.531l-0.665,1.292l-4.325-3.424L-360.04,299.614z
	 M-345.624,300.777l-1.442,2.003l-1.774-3.359l-5.378,5.814l5.711-11.177c0.222-0.517,0.721-0.84,1.22-0.84s0.943,0.323,1.22,0.84
	l5.434,10.724L-345.624,300.777z"/>
</svg>
