<?xml version="1.0" encoding="utf-8"?>
<!-- Generator: Adobe Illustrator 19.0.0, SVG Export Plug-In . SVG Version: 6.00 Build 0)  -->
<svg version="1.1" id="Layer_1" xmlns="http://www.w3.org/2000/svg" xmlns:xlink="http://www.w3.org/1999/xlink" x="0px" y="0px"
	 width="60px" height="60px" viewBox="-289 539 60 60" style="enable-background:new -289 539 60 60;" xml:space="preserve">
<style type="text/css">
	.st0{display:none;}
	.st1{display:inline;opacity:0.1;}
	.st2{opacity:0.4;fill:none;stroke:#000000;stroke-width:0.1;stroke-miterlimit:10;enable-background:new    ;}
	.st3{opacity:0.1;fill:none;stroke:#000000;stroke-width:0.1;stroke-miterlimit:10;enable-background:new    ;}
	.st4{fill:none;stroke:#000000;stroke-width:0.2;stroke-miterlimit:10;}
	.st5{display:inline;opacity:0.3;}
	.st6{display:inline;opacity:0.1;fill:none;stroke:#000000;stroke-width:0.2;stroke-miterlimit:10;enable-background:new    ;}
	.st7{display:inline;opacity:0.6;}
	.st8{fill:#00B28E;}
	.st9{fill:#AC4142;}
</style>
<g id="Grid" class="st0">
	<g id="Keylines" class="st1">
		<g>
			<line class="st2" x1="-703" y1="783.3" x2="-595" y2="891.3"/>
			<line class="st3" x1="-595" y1="783.3" x2="-703" y2="891.3"/>
		</g>
		<g>
			<line class="st4" x1="-703" y1="783.3" x2="-595" y2="891.3"/>
			<line class="st4" x1="-595" y1="783.3" x2="-703" y2="891.3"/>
		</g>
	</g>
	<g id="Circle" class="st5">
		<g>
			<path d="M-649,811.6c14.2,0,25.7,11.5,25.7,25.7S-634.8,863-649,863s-25.7-11.5-25.7-25.7S-663.2,811.6-649,811.6 M-649,811.3
				c-14.4,0-26,11.6-26,26s11.6,26,26,26s26-11.6,26-26S-634.6,811.3-649,811.3L-649,811.3z"/>
		</g>
	</g>
	<g id="Inner_Circle" class="st5">
		<g>
			<path d="M-649,819.6c9.8,0,17.7,7.9,17.7,17.7S-639.2,855-649,855s-17.7-7.9-17.7-17.7S-658.8,819.6-649,819.6 M-649,819.3
				c-9.9,0-18,8.1-18,18s8.1,18,18,18s18-8.1,18-18S-639.1,819.3-649,819.3L-649,819.3z"/>
		</g>
	</g>
	<path id="Horizontal_Rectangle" class="st6" d="M-627,855.3h-44c-2.2,0-4-1.8-4-4v-28c0-2.2,1.8-4,4-4h44c2.2,0,4,1.8,4,4v28
		C-623,853.5-624.8,855.3-627,855.3z"/>
	<path id="Vertical_Rectangle" class="st6" d="M-667,859.3v-44c0-2.2,1.8-4,4-4h28c2.2,0,4,1.8,4,4v44c0,2.2-1.8,4-4,4h-28
		C-665.2,863.3-667,861.5-667,859.3z"/>
	<path id="Square" class="st6" d="M-631,859.3h-36c-2.2,0-4-1.8-4-4v-36c0-2.2,1.8-4,4-4h36c2.2,0,4,1.8,4,4v36
		C-627,857.5-628.8,859.3-631,859.3z"/>
	<g id="Circular_Mask__x28_Pixel_x29_" class="st7">
		<g>
			<path class="st8" d="M-649,801.9c19.5,0,35.4,15.9,35.4,35.4s-15.9,35.4-35.4,35.4s-35.4-15.9-35.4-35.4S-668.5,801.9-649,801.9
				 M-649,801.3c-19.9,0-36,16.1-36,36s16.1,36,36,36s36-16.1,36-36S-629.1,801.3-649,801.3L-649,801.3z"/>
		</g>
	</g>
</g>
<g>
	<path class="st9" d="M-239.1,590.6l-1.3-5.1c-0.9-3.5-3.8-6.2-7.5-6.6l-3.2-0.4l-1-2.9c0.2-0.1,0.5-0.3,0.7-0.5
		c3.2-0.4,6.6-1.1,8.7-2.3c0.4-0.2,0.5-0.7,0.2-1.2c-1-1.7-1.8-4.4-2.3-6.2c0.3-0.7,0.5-1.5,0.5-2.6c0-2.2-0.3-3.6-1.1-4.3
		c-0.1-0.2-0.3-0.3-0.5-0.4c-0.6-7-6.1-12.4-13-12.4c-6.8,0-12.4,5.4-13,12.4c-0.1,0.1-0.3,0.2-0.5,0.4c-0.8,0.7-1.2,2.1-1.2,4.3
		c0,1.1,0.2,1.9,0.5,2.6c-0.5,1.8-1.3,4.4-2.3,6.2c-0.2,0.4-0.1,0.9,0.2,1.2c2,1.2,5.5,1.9,8.7,2.3c0.2,0.1,0.4,0.3,0.6,0.4l-1,2.9
		l-3.2,0.4c-3.6,0.5-6.6,3.1-7.5,6.6l-1.3,5.1c-0.1,0.6,0,1.1,0.3,1.6c0.3,0.4,0.9,0.7,1.4,0.7h36.3c0.6,0,1.1-0.2,1.4-0.7
		C-239.1,591.7-239,591.1-239.1,590.6z M-265,579.4l1-2.9c1.5,0.7,3.2,1.1,5,1.1c1.7,0,3.4-0.4,4.9-1.1l1,2.9
		C-256.7,581.9-261.4,581.9-265,579.4z M-259.1,575.5c-4.9,0-9.2-3.8-10.2-9.1c-0.1-0.4-0.4-0.7-0.8-0.8c-0.1,0-1.4-0.4-1.4-3
		c0-2.1,0.4-2.7,0.6-2.9c0,0,0.1,0,0.2,0c0.4,0.8,0.9,1.9,1.1,3.2c2-2.9,2.2-5.9,2.5-8.3c0,0,0.6,1,0.7,1.3c0.1,0.4,0.4,0.5,0.8,0.5
		h13.1c0.3,0,0.6-0.2,0.8-0.5s0.7-1.4,0.7-1.4c0.3,2.4,0.4,5.4,2.5,8.4c0.2-1.3,0.7-2.4,1.1-3.2c0,0,0.1,0,0.2,0
		c0.1,0.1,0.5,0.6,0.5,2.8c0,2.5-1.3,2.9-1.4,3c-0.4,0.1-0.7,0.4-0.8,0.8C-249.8,571.6-254.1,575.5-259.1,575.5z"/>
	<circle class="st9" cx="-262.9" cy="562" r="1.8"/>
	<circle class="st9" cx="-255.2" cy="562" r="1.8"/>
	<path class="st9" d="M-255.5,569.4c-2.1-0.8-4.3-1.3-6.5-1.3h-0.2c-0.4,0-0.7,0.3-0.7,0.7s0.3,0.7,0.7,0.7h0.2c2,0,4,0.4,5.9,1.2
		c0.1,0,0.2,0,0.3,0c0.3,0,0.6-0.2,0.7-0.4C-255,570-255.2,569.5-255.5,569.4z"/>
	<path class="st9" d="M-264.1,559.3c0.5-0.3,1.8-0.3,2.3,0c0.3,0.2,0.6,0.1,0.8-0.1c0.2-0.3,0.1-0.6-0.1-0.8c-0.9-0.6-2.7-0.6-3.7,0
		c-0.3,0.2-0.3,0.5-0.1,0.8c0.1,0.2,0.3,0.2,0.5,0.2C-264.3,559.4-264.2,559.4-264.1,559.3z"/>
	<path class="st9" d="M-257.1,558.3c-0.3,0.2-0.3,0.5-0.1,0.8c0.2,0.3,0.5,0.3,0.8,0.1c0.5-0.3,1.8-0.3,2.3,0c0.1,0,0.2,0.1,0.3,0.1
		c0.2,0,0.4-0.1,0.5-0.2c0.2-0.3,0.1-0.6-0.1-0.8C-254.3,557.6-256.1,557.6-257.1,558.3z"/>
</g>
</svg>
