<?xml version="1.0" encoding="utf-8"?>
<!-- Generator: Adobe Illustrator 19.0.0, SVG Export Plug-In . SVG Version: 6.00 Build 0)  -->
<svg version="1.1" id="Layer_1" xmlns="http://www.w3.org/2000/svg" xmlns:xlink="http://www.w3.org/1999/xlink" x="0px" y="0px"
	 viewBox="-390 268.28 60 60" style="enable-background:new -390 268.28 60 60;" xml:space="preserve">
<style type="text/css">
	.st0{display:none;}
	.st1{display:inline;opacity:0.1;}
	.st2{opacity:0.4;fill:none;stroke:#000000;stroke-width:0.1;stroke-miterlimit:10;enable-background:new    ;}
	.st3{opacity:0.1;fill:none;stroke:#000000;stroke-width:0.1;stroke-miterlimit:10;enable-background:new    ;}
	.st4{fill:none;stroke:#000000;stroke-width:0.2;stroke-miterlimit:10;}
	.st5{display:inline;opacity:0.3;}
	.st6{display:inline;opacity:0.1;fill:none;stroke:#000000;stroke-width:0.2;stroke-miterlimit:10;enable-background:new    ;}
	.st7{display:inline;opacity:0.6;}
	.st8{fill:#00B28E;}
	.st9{fill:#AC4142;}
</style>
<g id="Grid" class="st0">
	<g id="Keylines" class="st1">
		<g>
			<line class="st2" x1="-414" y1="244.28" x2="-306" y2="352.28"/>
			<line class="st3" x1="-306" y1="244.28" x2="-414" y2="352.28"/>
		</g>
		<g>
			<line class="st4" x1="-414" y1="244.28" x2="-306" y2="352.28"/>
			<line class="st4" x1="-306" y1="244.28" x2="-414" y2="352.28"/>
		</g>
	</g>
	<g id="Circle" class="st5">
		<g>
			<path d="M-360,272.58c14.171,0,25.7,11.529,25.7,25.7s-11.529,25.7-25.7,25.7s-25.7-11.529-25.7-25.7S-374.171,272.58-360,272.58
				 M-360,272.28c-14.359,0-26,11.641-26,26s11.641,26,26,26s26-11.641,26-26S-345.641,272.28-360,272.28L-360,272.28z"/>
		</g>
	</g>
	<g id="Inner_Circle" class="st5">
		<g>
			<path d="M-360,280.58c9.76,0,17.7,7.94,17.7,17.7s-7.94,17.7-17.7,17.7s-17.7-7.94-17.7-17.7S-369.76,280.58-360,280.58
				 M-360,280.28c-9.941,0-18,8.059-18,18s8.059,18,18,18s18-8.059,18-18S-350.059,280.28-360,280.28L-360,280.28z"/>
		</g>
	</g>
	<path id="Horizontal_Rectangle" class="st6" d="M-338,316.28h-44c-2.209,0-4-1.791-4-4v-28c0-2.209,1.791-4,4-4h44
		c2.209,0,4,1.791,4,4v28C-334,314.489-335.791,316.28-338,316.28z"/>
	<path id="Vertical_Rectangle" class="st6" d="M-378,320.28v-44c0-2.209,1.791-4,4-4h28c2.209,0,4,1.791,4,4v44c0,2.209-1.791,4-4,4
		h-28C-376.209,324.28-378,322.489-378,320.28z"/>
	<path id="Square" class="st6" d="M-342,320.28h-36c-2.2,0-4-1.8-4-4v-36c0-2.2,1.8-4,4-4h36c2.2,0,4,1.8,4,4v36
		C-338,318.48-339.8,320.28-342,320.28z"/>
	<g id="Circular_Mask__x28_Pixel_x29_" class="st7">
		<g>
			<path class="st8" d="M-360,262.88c19.52,0,35.4,15.88,35.4,35.4c0,19.52-15.88,35.4-35.4,35.4s-35.4-15.88-35.4-35.4
				S-379.52,262.88-360,262.88 M-360,262.28c-19.882,0-36,16.118-36,36s16.118,36,36,36s36-16.118,36-36S-340.118,262.28-360,262.28
				L-360,262.28z"/>
		</g>
	</g>
</g>
<path class="st9" d="M-375.541,322.071c-0.175,0-0.344-0.012-0.506-0.033c-0.457-0.063-0.858-0.304-1.134-0.676
	c-0.594-0.795-0.478-1.787-0.056-4.54c0.12-0.78,0.463-3.023,0.401-3.729c-4.144-3.952-5.764-8.15-5.764-14.892
	c0-12.461,10.138-22.6,22.6-22.6c12.462,0,22.6,10.139,22.6,22.601c0,12.461-10.138,22.599-22.6,22.599
	c-2.867,0-5.657-0.528-8.297-1.572c-0.439,0.141-1.534,0.711-2.029,0.969C-372.033,321.082-373.939,322.071-375.541,322.071z
	 M-379.478,299.092c0.136,5.367,1.536,8.723,4.979,11.934c1.082,1.007,0.858,2.841,0.333,6.266
	c-0.065,0.423-0.142,0.924-0.204,1.386c0.821-0.308,1.787-0.81,2.61-1.238c1.561-0.811,2.653-1.343,3.582-1.343
	c0.282,0,0.549,0.051,0.793,0.148c2.344,0.961,4.827,1.448,7.384,1.448c10.748,0,19.493-8.744,19.493-19.493
	c0-10.748-8.745-19.492-19.493-19.492s-19.492,8.744-19.492,19.492c0,0.181,0.009,0.609,0.009,0.609l0.006,0.021l0.006,0.241
	L-379.478,299.092z"/>
<path class="st9" d="M-359.996,317.112c-0.821,0-1.489-0.667-1.489-1.488v-4.914c-1.919,0.022-4.013,0.086-6.245,0.194l0.402,1.855
	c0.085,0.388,0.012,0.787-0.204,1.122c-0.215,0.334-0.548,0.564-0.937,0.648c-0.102,0.022-0.208,0.033-0.315,0.033
	c-0.695,0-1.306-0.493-1.454-1.172l-0.483-2.325c-0.748,0.044-1.487,0.091-2.207,0.141l-0.105,0.004
	c-0.778,0-1.43-0.608-1.484-1.385c-0.028-0.396,0.1-0.779,0.361-1.08c0.261-0.3,0.624-0.481,1.02-0.508
	c0.575-0.041,1.164-0.08,1.759-0.115c-0.314-1.503-0.767-4.226-0.869-7.805h-5.084c-0.821,0-1.489-0.667-1.489-1.488
	c0-0.821,0.668-1.489,1.489-1.489h5.085c0.102-3.569,0.555-6.296,0.869-7.803c-0.893-0.052-1.77-0.107-2.615-0.166
	c-0.818-0.057-1.438-0.769-1.382-1.588c0.055-0.778,0.708-1.385,1.486-1.385l0.101,0.003c0.979,0.067,1.999,0.131,3.041,0.19
	c0.358-1.49,0.89-3.386,0.896-3.407c0.178-0.637,0.767-1.085,1.431-1.085c0.137,0,0.273,0.019,0.405,0.056
	c0.789,0.221,1.251,1.045,1.03,1.835c-0.005,0.018-0.409,1.464-0.736,2.759c2.157,0.102,4.246,0.166,6.232,0.191v-6.004
	c0-0.821,0.668-1.489,1.489-1.489s1.489,0.668,1.489,1.489v6.008c2.039-0.027,4.363-0.11,6.931-0.249l-0.597-2.141
	c-0.108-0.382-0.059-0.784,0.137-1.13c0.195-0.347,0.514-0.596,0.896-0.703c0.132-0.036,0.265-0.054,0.398-0.054
	c0.668,0,1.259,0.448,1.436,1.089l0.76,2.759c0.778-0.05,2.318-0.156,2.318-0.156l0.075-0.001c0.781,0,1.435,0.608,1.49,1.384
	c0.028,0.396-0.1,0.779-0.36,1.08c-0.261,0.301-0.622,0.481-1.019,0.51c-0.595,0.042-1.202,0.083-1.816,0.124
	c0.321,1.572,0.793,4.408,0.903,7.884h4.283c0.818,0,1.487,0.667,1.49,1.486c0,0.824-0.668,1.491-1.489,1.491h-4.274
	c-0.088,3.839-0.497,6.383-0.835,7.864l0.905,0.056c0.398,0.025,0.761,0.204,1.024,0.503s0.394,0.681,0.369,1.078
	c-0.051,0.782-0.709,1.393-1.496,1.393l-1.653-0.101l-0.662,1.783c-0.216,0.581-0.777,0.971-1.396,0.971
	c-0.178,0-0.352-0.031-0.518-0.093c-0.769-0.285-1.162-1.143-0.877-1.913l0.342-0.925c-2.366-0.117-4.675-0.192-6.764-0.219v4.912
	C-358.507,316.445-359.175,317.112-359.996,317.112z M-358.508,307.734c2.377,0.031,5.015,0.122,7.704,0.266
	c0.286-1.109,0.777-3.568,0.877-7.684h-8.581V307.734z M-369.264,300.316c0.113,3.668,0.619,6.375,0.903,7.638
	c2.473-0.125,4.78-0.199,6.875-0.222v-7.417H-369.264z M-349.935,297.338c-0.122-3.538-0.641-6.368-0.929-7.698
	c-2.84,0.16-5.406,0.255-7.644,0.283v7.415H-349.935z M-361.486,297.338v-7.42c-2.18-0.027-4.532-0.102-6.874-0.218
	c-0.284,1.265-0.79,3.975-0.904,7.638H-361.486z"/>
</svg>
