<?xml version="1.0" encoding="utf-8"?>
<!-- Generator: Adobe Illustrator 19.0.0, SVG Export Plug-In . SVG Version: 6.00 Build 0)  -->
<svg version="1.1" id="Layer_1" xmlns="http://www.w3.org/2000/svg" xmlns:xlink="http://www.w3.org/1999/xlink" x="0px" y="0px"
	 width="60px" height="60px" viewBox="-289 539 60 60" style="enable-background:new -289 539 60 60;" xml:space="preserve">
<style type="text/css">
	.st0{display:none;}
	.st1{display:inline;opacity:0.1;}
	.st2{opacity:0.4;fill:none;stroke:#000000;stroke-width:0.1;stroke-miterlimit:10;enable-background:new    ;}
	.st3{opacity:0.1;fill:none;stroke:#000000;stroke-width:0.1;stroke-miterlimit:10;enable-background:new    ;}
	.st4{fill:none;stroke:#000000;stroke-width:0.2;stroke-miterlimit:10;}
	.st5{display:inline;opacity:0.3;}
	.st6{display:inline;opacity:0.1;fill:none;stroke:#000000;stroke-width:0.2;stroke-miterlimit:10;enable-background:new    ;}
	.st7{display:inline;opacity:0.6;}
	.st8{fill:#00B28E;}
	.st9{fill:#AC4142;}
</style>
<g id="Grid" class="st0">
	<g id="Keylines" class="st1">
		<g>
			<line class="st2" x1="-703" y1="783.3" x2="-595" y2="891.3"/>
			<line class="st3" x1="-595" y1="783.3" x2="-703" y2="891.3"/>
		</g>
		<g>
			<line class="st4" x1="-703" y1="783.3" x2="-595" y2="891.3"/>
			<line class="st4" x1="-595" y1="783.3" x2="-703" y2="891.3"/>
		</g>
	</g>
	<g id="Circle" class="st5">
		<g>
			<path d="M-649,811.6c14.2,0,25.7,11.5,25.7,25.7S-634.8,863-649,863s-25.7-11.5-25.7-25.7S-663.2,811.6-649,811.6 M-649,811.3
				c-14.4,0-26,11.6-26,26s11.6,26,26,26s26-11.6,26-26S-634.6,811.3-649,811.3L-649,811.3z"/>
		</g>
	</g>
	<g id="Inner_Circle" class="st5">
		<g>
			<path d="M-649,819.6c9.8,0,17.7,7.9,17.7,17.7S-639.2,855-649,855s-17.7-7.9-17.7-17.7S-658.8,819.6-649,819.6 M-649,819.3
				c-9.9,0-18,8.1-18,18s8.1,18,18,18s18-8.1,18-18S-639.1,819.3-649,819.3L-649,819.3z"/>
		</g>
	</g>
	<path id="Horizontal_Rectangle" class="st6" d="M-627,855.3h-44c-2.2,0-4-1.8-4-4v-28c0-2.2,1.8-4,4-4h44c2.2,0,4,1.8,4,4v28
		C-623,853.5-624.8,855.3-627,855.3z"/>
	<path id="Vertical_Rectangle" class="st6" d="M-667,859.3v-44c0-2.2,1.8-4,4-4h28c2.2,0,4,1.8,4,4v44c0,2.2-1.8,4-4,4h-28
		C-665.2,863.3-667,861.5-667,859.3z"/>
	<path id="Square" class="st6" d="M-631,859.3h-36c-2.2,0-4-1.8-4-4v-36c0-2.2,1.8-4,4-4h36c2.2,0,4,1.8,4,4v36
		C-627,857.5-628.8,859.3-631,859.3z"/>
	<g id="Circular_Mask__x28_Pixel_x29_" class="st7">
		<g>
			<path class="st8" d="M-649,801.9c19.5,0,35.4,15.9,35.4,35.4s-15.9,35.4-35.4,35.4s-35.4-15.9-35.4-35.4S-668.5,801.9-649,801.9
				 M-649,801.3c-19.9,0-36,16.1-36,36s16.1,36,36,36s36-16.1,36-36S-629.1,801.3-649,801.3L-649,801.3z"/>
		</g>
	</g>
</g>
<g>
	<path class="st9" d="M-235.5,567.7l-22.5-20.4c-0.6-0.5-1.4-0.5-2,0l-8,7.3v-2.9c0-1.7-1.3-3.1-3-3.1s-3,1.4-3,3.1v8.4l-8.5,7.7
		c-0.6,0.6-0.6,1.6,0,2.2c0.5,0.6,1.4,0.6,2,0.1l21.5-19.5l21.5,19.5c0.6,0.6,1.6,0.5,2.1-0.2C-234.9,569.3-234.9,568.3-235.5,567.7
		z"/>
	<path class="st9" d="M-242.1,571.5l-15-12.9c-1.1-1-2.7-1-3.8,0l-15,12.9c-0.7,0.6-1.1,1.5-1.1,2.4v15.4c0,1.7,1.3,3.1,3,3.1
		c0,0,0,0,0,0h9.9v-7.7c0-3,2.3-5.4,5.1-5.4c2.8,0,5.1,2.4,5.1,5.4v7.7h9.9c1.7,0,3-1.4,3-3.1v-15.4
		C-241,573-241.4,572.1-242.1,571.5z"/>
</g>
</svg>
