<?xml version="1.0" encoding="utf-8"?>
<!-- Generator: Adobe Illustrator 19.0.0, SVG Export Plug-In . SVG Version: 6.00 Build 0)  -->
<svg version="1.1" id="Layer_1" xmlns="http://www.w3.org/2000/svg" xmlns:xlink="http://www.w3.org/1999/xlink" x="0px" y="0px"
	 width="60px" height="60px" viewBox="-289 539 60 60" style="enable-background:new -289 539 60 60;" xml:space="preserve">
<style type="text/css">
	.st0{display:none;}
	.st1{display:inline;opacity:0.1;}
	.st2{opacity:0.4;fill:none;stroke:#000000;stroke-width:0.1;stroke-miterlimit:10;enable-background:new    ;}
	.st3{opacity:0.1;fill:none;stroke:#000000;stroke-width:0.1;stroke-miterlimit:10;enable-background:new    ;}
	.st4{fill:none;stroke:#000000;stroke-width:0.2;stroke-miterlimit:10;}
	.st5{display:inline;opacity:0.3;}
	.st6{display:inline;opacity:0.1;fill:none;stroke:#000000;stroke-width:0.2;stroke-miterlimit:10;enable-background:new    ;}
	.st7{display:inline;opacity:0.6;}
	.st8{fill:#00B28E;}
	.st9{fill:none;}
	.st10{fill:#AC4142;}
</style>
<g id="Grid" class="st0">
	<g id="Keylines" class="st1">
		<g>
			<line class="st2" x1="-703" y1="783.3" x2="-595" y2="891.3"/>
			<line class="st3" x1="-595" y1="783.3" x2="-703" y2="891.3"/>
		</g>
		<g>
			<line class="st4" x1="-703" y1="783.3" x2="-595" y2="891.3"/>
			<line class="st4" x1="-595" y1="783.3" x2="-703" y2="891.3"/>
		</g>
	</g>
	<g id="Circle" class="st5">
		<g>
			<path d="M-649,811.6c14.2,0,25.7,11.5,25.7,25.7S-634.8,863-649,863s-25.7-11.5-25.7-25.7S-663.2,811.6-649,811.6 M-649,811.3
				c-14.4,0-26,11.6-26,26s11.6,26,26,26s26-11.6,26-26S-634.6,811.3-649,811.3L-649,811.3z"/>
		</g>
	</g>
	<g id="Inner_Circle" class="st5">
		<g>
			<path d="M-649,819.6c9.8,0,17.7,7.9,17.7,17.7S-639.2,855-649,855s-17.7-7.9-17.7-17.7S-658.8,819.6-649,819.6 M-649,819.3
				c-9.9,0-18,8.1-18,18s8.1,18,18,18s18-8.1,18-18S-639.1,819.3-649,819.3L-649,819.3z"/>
		</g>
	</g>
	<path id="Horizontal_Rectangle" class="st6" d="M-627,855.3h-44c-2.2,0-4-1.8-4-4v-28c0-2.2,1.8-4,4-4h44c2.2,0,4,1.8,4,4v28
		C-623,853.5-624.8,855.3-627,855.3z"/>
	<path id="Vertical_Rectangle" class="st6" d="M-667,859.3v-44c0-2.2,1.8-4,4-4h28c2.2,0,4,1.8,4,4v44c0,2.2-1.8,4-4,4h-28
		C-665.2,863.3-667,861.5-667,859.3z"/>
	<path id="Square" class="st6" d="M-631,859.3h-36c-2.2,0-4-1.8-4-4v-36c0-2.2,1.8-4,4-4h36c2.2,0,4,1.8,4,4v36
		C-627,857.5-628.8,859.3-631,859.3z"/>
	<g id="Circular_Mask__x28_Pixel_x29_" class="st7">
		<g>
			<path class="st8" d="M-649,801.9c19.5,0,35.4,15.9,35.4,35.4s-15.9,35.4-35.4,35.4s-35.4-15.9-35.4-35.4S-668.5,801.9-649,801.9
				 M-649,801.3c-19.9,0-36,16.1-36,36s16.1,36,36,36s36-16.1,36-36S-629.1,801.3-649,801.3L-649,801.3z"/>
		</g>
	</g>
</g>
<path class="st9" d="M-272.3,563.9c0.1,0,0.2,0,0.2-0.1c-0.7-0.1-1.5-0.3-2.2-0.6C-273.7,563.8-273,564-272.3,563.9z"/>
<path class="st10" d="M-236.8,577.9c-0.1,0-0.1,0-0.2,0l-6.6,0.2c-0.4,0-0.8-0.1-1.1-0.3l-16.4-12.3c-1.1,0.5-2.3,0.8-3.5,1
	c0,0,0,0,0,0c-3.4,0.5-6.8-0.4-9.5-2.4c-5.7-4.3-6.9-12.5-2.6-18.2c2.1-2.8,5.1-4.6,8.6-5.1c3.4-0.5,6.9,0.4,9.6,2.5
	c3.7,2.8,5.6,7.4,5,12.1l4.9,3.7c0.3,0.2,0.6,0.6,0.6,1l0.6,2.5l2.5-0.1c0.8,0,1.6,0.5,1.8,1.3l0.6,2.5l2.5-0.1
	c0.8,0,1.5,0.5,1.7,1.2l2.7,8.4c0,0.2,0.1,0.3,0.1,0.5C-235.2,577-235.9,577.8-236.8,577.9z M-239.4,574.5l-1.6-4.9l-2.7,0.1
	c-0.8,0-1.6-0.5-1.8-1.3l-0.6-2.5l-2.5,0.1c-0.8,0-1.6-0.5-1.8-1.3l-0.8-3.3l-5.2-3.9c-0.5-0.4-0.8-1.1-0.7-1.8
	c0.8-3.7-0.6-7.5-3.6-9.7c-2-1.5-4.5-2.2-7.1-1.8c-2.5,0.4-4.7,1.7-6.3,3.7c-1.5,2-2.2,4.5-1.8,7.1c0.4,2.5,1.7,4.7,3.7,6.3
	c2,1.5,4.6,2.2,7.1,1.8c1.2-0.2,2.2-0.5,3.3-1.1c0.2-0.1,0.4-0.2,0.6-0.2c0.5-0.1,0.9,0.1,1.3,0.3l16.7,12.5L-239.4,574.5z"/>
<path class="st10" d="M-273.6,563.4c3.8,2.8,8.7,3.1,12.7,1.2l16.7,12.6c0.2,0.1,0.4,0.2,0.6,0.2l6.6-0.2c0.6,0,1-0.5,1-1.1
	c0-0.1,0-0.2,0-0.3l-2.7-8.4c-0.1-0.4-0.6-0.7-1-0.7l-3.1,0.2l-0.7-3.1c-0.1-0.5-0.6-0.8-1-0.8l-3.1,0.2l-0.7-3.1
	c-0.1-0.2-0.2-0.4-0.4-0.6l-5.3-4c0.7-4.4-0.9-9-4.7-11.8c-5.4-4.1-13.1-3-17.2,2.4C-280.1,551.7-279,559.4-273.6,563.4
	L-273.6,563.4z M-272.4,561.8c-4.5-3.4-5.4-9.8-2-14.3c3.4-4.5,9.8-5.4,14.3-2c3.3,2.5,4.7,6.7,3.8,10.5c-0.1,0.4,0.1,0.8,0.4,1
	l5.4,4l0.8,3.5c0.1,0.5,0.6,0.8,1,0.8l3.1-0.2l0.7,3.1c0.1,0.5,0.6,0.8,1,0.8l3.2-0.2l2,6.3l-4.8,0.2l-16.9-12.7
	c-0.3-0.2-0.8-0.3-1.1-0.1C-264.7,564.5-269,564.3-272.4,561.8L-272.4,561.8z M-271.5,554.7c1.8,1.4,4.4,1,5.7-0.8
	c1.4-1.8,1-4.4-0.8-5.7c-1.8-1.4-4.4-1-5.7,0.8C-273.7,550.8-273.3,553.4-271.5,554.7L-271.5,554.7z"/>
<path class="st9" d="M-243.6,570.5l-0.1,0c-1.1,0-2.1-0.8-2.4-1.9l-0.4-1.9l-2,0.1l-0.1,0c-1.2,0-2.1-0.8-2.4-1.9l-0.7-3l-5-3.7
	c-0.8-0.6-1.1-1.5-0.9-2.5c0.8-3.4-0.5-6.9-3.3-9c-1.5-1.2-3.4-1.8-5.3-1.8c-0.4,0-0.8,0-1.2,0.1c-2.3,0.3-4.4,1.5-5.8,3.4
	c-1.4,1.9-2,4.2-1.7,6.5s1.5,4.4,3.4,5.8c1.5,1.2,3.4,1.8,5.3,1.8c0.4,0,0.8,0,1.3-0.1c1.1-0.2,2.1-0.5,3-1c0.3-0.1,0.5-0.2,0.8-0.3
	c0.1,0,0.2,0,0.4,0c0.5,0,1,0.2,1.5,0.5l16.5,12.4l2.4-0.1l-1.1-3.5L-243.6,570.5z"/>
<path class="st9" d="M-274.9,564.2c-0.6-0.5-1.2-1.1-1.7-1.7C-276.1,563.2-275.5,563.8-274.9,564.2z"/>
<path class="st10" d="M-264.4,567.2c-0.5,0.1-0.9,0.1-1.4,0.1c-1.1,0.1-2.1,0.1-3.3-0.2c-0.3-0.1-0.8-0.2-1.2-0.4
	c-1.5-0.5-2.9-1.2-4.1-2.1c-0.1-0.1-0.3-0.2-0.4-0.4c-0.7-0.5-1.2-1-1.7-1.7c-1.7-2-2.8-4.4-3.2-7c-0.1-0.8-0.1-1.6-0.1-2.5
	l-1.2-0.3c-1.4,2.5-1.9,5.3-1.5,8.1c0.7,4.6,3.8,8.5,8.2,10.2l2.9,20.3c0.1,0.4,0.2,0.8,0.5,1l4.8,4.5c0.4,0.4,0.9,0.5,1.4,0.5
	c0.4-0.1,0.8-0.2,1-0.5c0.1-0.1,0.2-0.2,0.3-0.4l4-7.8c0.4-0.7,0.2-1.6-0.4-2.1l-1.9-1.7l1.3-2.2c0.4-0.7,0.3-1.6-0.3-2.2l-1.9-1.7
	l1.3-2.2c0.2-0.3,0.3-0.8,0.2-1.2l-0.9-6.1c0.6-0.5,1.2-1,1.7-1.5l0.4-0.4l-1.4-1C-262.2,566.7-263.3,567-264.4,567.2z"/>
<path class="st10" d="M-264.2,567.7c0,0-0.1,0-0.1,0.1c-0.3,0.2-0.5,0.6-0.5,1l0.9,6.7l-1.9,3.1c-0.3,0.4-0.2,1,0.2,1.3l2.3,2.1
	l-1.7,2.7c-0.3,0.4-0.2,1,0.2,1.3l2.4,2.2l-3,5.9l-3.6-3.3l-3-20.9c-0.1-0.4-0.3-0.7-0.7-0.8c-3.8-1.1-6.7-4.3-7.3-8.4v0
	c-0.1-1-0.1-1.9,0-2.8c-0.4-1.5-0.6-3-0.6-4.6c-1.3,2.3-1.8,4.9-1.4,7.7l0,0c0.7,4.7,3.9,8.3,8.1,9.8l2.9,20.7
	c0,0.2,0.1,0.4,0.3,0.6l4.8,4.5c0.4,0.4,1.1,0.4,1.4,0c0.1-0.1,0.1-0.1,0.2-0.2l4-7.8c0.2-0.4,0.1-0.9-0.2-1.2l-2.3-2.1l1.7-2.7
	c0.3-0.4,0.2-1-0.2-1.3l-2.3-2.1l1.7-2.7c0.1-0.2,0.2-0.4,0.1-0.7l-0.9-6.5c0.7-0.5,1.4-1.1,1.9-1.7l-0.5-0.4
	C-262.2,567.3-263.1,567.5-264.2,567.7z"/>
</svg>
