<?xml version="1.0" encoding="utf-8"?>
<!-- Generator: Adobe Illustrator 19.0.0, SVG Export Plug-In . SVG Version: 6.00 Build 0)  -->
<svg version="1.1" xmlns="http://www.w3.org/2000/svg" xmlns:xlink="http://www.w3.org/1999/xlink" x="0px" y="0px"
	 viewBox="0 0 60 60" style="enable-background:new 0 0 60 60;" xml:space="preserve">
<style type="text/css">
	.st0{display:none;}
	.st1{display:inline;opacity:0.1;}
	.st2{opacity:0.4;fill:none;stroke:#000000;stroke-width:0.1;stroke-miterlimit:10;}
	.st3{opacity:0.1;fill:none;stroke:#000000;stroke-width:0.1;stroke-miterlimit:10;}
	.st4{fill:none;stroke:#000000;stroke-width:0.2;stroke-miterlimit:10;}
	.st5{display:inline;opacity:0.3;}
	.st6{display:inline;opacity:0.1;fill:none;stroke:#000000;stroke-width:0.2;stroke-miterlimit:10;}
	.st7{display:inline;opacity:0.6;}
	.st8{fill:#00B28E;}
	.st9{fill:#AC4142;}
	.st10{fill:#FFFFFF;}
</style>
<g id="Grid" class="st0">
	<g id="Keylines" class="st1">
		<g>
			<line class="st2" x1="-24" y1="-24" x2="84" y2="84"/>
			<line class="st3" x1="84" y1="-24" x2="-24" y2="84"/>
		</g>
		<g>
			<line class="st4" x1="-24" y1="-24" x2="84" y2="84"/>
			<line class="st4" x1="84" y1="-24" x2="-24" y2="84"/>
		</g>
	</g>
	<g id="Circle" class="st5">
		<g>
			<path d="M30,4.3c14.171,0,25.7,11.529,25.7,25.7S44.171,55.7,30,55.7S4.3,44.171,4.3,30S15.829,4.3,30,4.3 M30,4
				C15.641,4,4,15.641,4,30s11.641,26,26,26s26-11.641,26-26S44.359,4,30,4L30,4z"/>
		</g>
	</g>
	<g id="Inner_Circle" class="st5">
		<g>
			<path d="M30,12.3c9.76,0,17.7,7.94,17.7,17.7S39.76,47.7,30,47.7S12.3,39.76,12.3,30S20.24,12.3,30,12.3 M30,12
				c-9.941,0-18,8.059-18,18s8.059,18,18,18s18-8.059,18-18S39.941,12,30,12L30,12z"/>
		</g>
	</g>
	<path id="Horizontal_Rectangle" class="st6" d="M52,48H8c-2.209,0-4-1.791-4-4V16c0-2.209,1.791-4,4-4h44c2.209,0,4,1.791,4,4v28
		C56,46.209,54.209,48,52,48z"/>
	<path id="Vertical_Rectangle" class="st6" d="M12,52V8c0-2.209,1.791-4,4-4h28c2.209,0,4,1.791,4,4v44c0,2.209-1.791,4-4,4H16
		C13.791,56,12,54.209,12,52z"/>
	<path id="Square" class="st6" d="M48,52H12c-2.2,0-4-1.8-4-4V12c0-2.2,1.8-4,4-4h36c2.2,0,4,1.8,4,4v36C52,50.2,50.2,52,48,52z"/>
	<g id="Circular_Mask__x28_Pixel_x29_" class="st7">
		<g>
			<path class="st8" d="M30-5.4c19.52,0,35.4,15.88,35.4,35.4S49.52,65.4,30,65.4S-5.4,49.52-5.4,30S10.48-5.4,30-5.4 M30-6
				C10.118-6-6,10.118-6,30s16.118,36,36,36s36-16.118,36-36S49.882-6,30-6L30-6z"/>
		</g>
	</g>
</g>
<g id="Customs">
	<g>
		<path class="st9" d="M55.011,43.003c-3.742-2.716-7.65-6.323-9.258-7.851c1.661-2.113,5.866-7.697,7.334-11.917
			c0.144-0.413,0.047-0.872-0.253-1.188c-0.298-0.316-0.747-0.441-1.173-0.324c-4.482,1.272-11.196,1.627-16.07,1.403l0.003-2.296
			c0,0-0.062-5.707-0.346-5.929c-4.184-3.262-14.234-4.411-21.931-3.413c0,0-9.486,1.52-9.486,4.106v0.222v19.93v2.345v1.77
			l2.387-0.973c1.374-0.535,2.977-0.985,4.709-1.332l2.356-0.392c4.049-0.554,8.368-0.553,12.647,0.181l-0.098,6.615v1.167
			c0,0.24,0.252,0.473,0.391,0.669c1.536,2.204,5.668,3.066,10.33,3.066c6.686,0,14.688-1.773,18.319-3.897
			c0.342-0.201,0.581-0.559,0.602-0.956C55.49,43.614,55.329,43.235,55.011,43.003z"/>
		<path class="st10" d="M32.802,39.169c-1.295-0.551-2.972-0.985-3.972-1.338v5.613l4.19-4.247
			C32.973,39.185,32.849,39.187,32.802,39.169z"/>
		<path class="st10" d="M43.258,34.512c0.052-0.063,4.456-5.435,6.725-9.99c-4.461,0.859-9.987,0.995-14.401,0.794l-0.018,13.946
			c0,0.311-0.123,0.609-0.345,0.83l-5.44,5.417c4.437,1.974,16.159,0.851,22.314-1.76c-4.45-3.442-8.558-7.467-8.752-7.655
			C42.908,35.669,42.872,34.982,43.258,34.512z"/>
	</g>
</g>
</svg>
