<?xml version="1.0" encoding="utf-8"?>
<!-- Generator: Adobe Illustrator 19.0.0, SVG Export Plug-In . SVG Version: 6.00 Build 0)  -->
<svg version="1.1" id="Layer_1" xmlns="http://www.w3.org/2000/svg" xmlns:xlink="http://www.w3.org/1999/xlink" x="0px" y="0px"
	 viewBox="-390 268.28 60 60" style="enable-background:new -390 268.28 60 60;" xml:space="preserve">
<style type="text/css">
	.st0{display:none;}
	.st1{display:inline;opacity:0.1;}
	.st2{opacity:0.4;fill:none;stroke:#000000;stroke-width:0.1;stroke-miterlimit:10;enable-background:new    ;}
	.st3{opacity:0.1;fill:none;stroke:#000000;stroke-width:0.1;stroke-miterlimit:10;enable-background:new    ;}
	.st4{fill:none;stroke:#000000;stroke-width:0.2;stroke-miterlimit:10;}
	.st5{display:inline;opacity:0.3;}
	.st6{display:inline;opacity:0.1;fill:none;stroke:#000000;stroke-width:0.2;stroke-miterlimit:10;enable-background:new    ;}
	.st7{display:inline;opacity:0.6;}
	.st8{fill:#00B28E;}
	.st9{fill:#AC4142;}
</style>
<g id="Grid" class="st0">
	<g id="Keylines" class="st1">
		<g>
			<line class="st2" x1="-414" y1="244.28" x2="-306" y2="352.28"/>
			<line class="st3" x1="-306" y1="244.28" x2="-414" y2="352.28"/>
		</g>
		<g>
			<line class="st4" x1="-414" y1="244.28" x2="-306" y2="352.28"/>
			<line class="st4" x1="-306" y1="244.28" x2="-414" y2="352.28"/>
		</g>
	</g>
	<g id="Circle" class="st5">
		<g>
			<path d="M-360,272.58c14.171,0,25.7,11.529,25.7,25.7s-11.529,25.7-25.7,25.7s-25.7-11.529-25.7-25.7S-374.171,272.58-360,272.58
				 M-360,272.28c-14.359,0-26,11.641-26,26s11.641,26,26,26s26-11.641,26-26S-345.641,272.28-360,272.28L-360,272.28z"/>
		</g>
	</g>
	<g id="Inner_Circle" class="st5">
		<g>
			<path d="M-360,280.58c9.76,0,17.7,7.94,17.7,17.7s-7.94,17.7-17.7,17.7s-17.7-7.94-17.7-17.7S-369.76,280.58-360,280.58
				 M-360,280.28c-9.941,0-18,8.059-18,18s8.059,18,18,18s18-8.059,18-18S-350.059,280.28-360,280.28L-360,280.28z"/>
		</g>
	</g>
	<path id="Horizontal_Rectangle" class="st6" d="M-338,316.28h-44c-2.209,0-4-1.791-4-4v-28c0-2.209,1.791-4,4-4h44
		c2.209,0,4,1.791,4,4v28C-334,314.489-335.791,316.28-338,316.28z"/>
	<path id="Vertical_Rectangle" class="st6" d="M-378,320.28v-44c0-2.209,1.791-4,4-4h28c2.209,0,4,1.791,4,4v44c0,2.209-1.791,4-4,4
		h-28C-376.209,324.28-378,322.489-378,320.28z"/>
	<path id="Square" class="st6" d="M-342,320.28h-36c-2.2,0-4-1.8-4-4v-36c0-2.2,1.8-4,4-4h36c2.2,0,4,1.8,4,4v36
		C-338,318.48-339.8,320.28-342,320.28z"/>
	<g id="Circular_Mask__x28_Pixel_x29_" class="st7">
		<g>
			<path class="st8" d="M-360,262.88c19.52,0,35.4,15.88,35.4,35.4s-15.88,35.4-35.4,35.4s-35.4-15.88-35.4-35.4
				S-379.52,262.88-360,262.88 M-360,262.28c-19.882,0-36,16.118-36,36s16.118,36,36,36s36-16.118,36-36S-340.118,262.28-360,262.28
				L-360,262.28z"/>
		</g>
	</g>
</g>
<path class="st9" d="M-333.41,290.946c0-4.785-3.985-8.683-8.885-8.683c-0.614,0-1.354,0.156-1.934,0.281
	c0.097-0.453,0.258-1.309,0.258-1.994c0-4.961-3.811-8.845-8.685-8.845c-2.84-0.002-5.606,1.579-7.308,4.124
	c-1.708-2.544-4.508-4.126-7.36-4.126c-4.891,0-8.723,3.884-8.723,8.845c0,0.475,0.1,1.14,0.286,1.971
	c-0.451-0.094-1.291-0.252-1.985-0.252c-4.957,0-8.845,3.811-8.845,8.683c0,2.865,1.599,5.668,4.17,7.381
	c-2.595,1.737-4.151,4.44-4.151,7.284c0,4.811,3.971,8.724,8.848,8.724c0.598,0,1.32-0.139,1.95-0.277
	c-0.176,0.796-0.272,1.466-0.272,1.952c0,4.959,3.832,8.843,8.723,8.843c2.898,0,5.601-1.51,7.296-4.042
	c1.631,2.423,4.561,4.042,7.369,4.042c4.874,0,8.685-3.884,8.685-8.843c0-0.644-0.139-1.422-0.251-1.952
	c0.83,0.178,1.494,0.277,1.969,0.277c4.878,0,8.843-3.913,8.843-8.724c0-2.869-1.545-5.657-4.037-7.336
	C-334.955,296.599-333.41,293.82-333.41,290.946z M-383.682,290.91c-0.001-1.563,0.631-3.095,1.742-4.205
	c1.093-1.094,2.552-1.701,4.114-1.702c2.078-0.001,3.475,0.968,4.28,1.779c0,0,0.52,0.518,0.695,0.684
	c-0.117,0.307-0.233,0.705-0.233,1.257c0,1.962,1.619,3.565,3.605,3.574c0.959,0.005,1.812-0.344,2.478-1.003
	c0.676-0.675,1.079-1.639,1.079-2.58c0.002-0.917-0.412-1.9-1.082-2.574c-0.662-0.657-1.524-1.004-2.504-1.001
	c-0.535,0.001-0.984,0.157-1.223,0.236c-0.123-0.117-0.705-0.687-0.705-0.687l-0.002-0.001c-0.425-0.4-1.804-1.889-1.807-4.239
	c0-0.005,0-0.01,0-0.013c0-3.636,3.057-5.892,5.894-5.9c1.579-0.002,3.062,0.61,4.183,1.726c1.118,1.114,1.73,2.606,1.732,4.198
	v13.707c-0.002,1.692-1.505,2.633-2.567,2.633h-13.767c-1.56,0.002-3.092-0.631-4.217-1.748
	C-382.759,294.283-383.678,292.939-383.682,290.91z M-361.437,316.092c0.001,1.561-0.651,3.095-1.771,4.219
	c-0.768,0.771-2.112,1.689-4.138,1.69c-3.253,0.006-5.906-2.622-5.909-5.855c0-0.004,0-0.005,0-0.01c0-2.068,0.969-3.463,1.778-4.27
	c0.002,0,0.519-0.519,0.686-0.692c0.31,0.115,0.706,0.23,1.256,0.232c1.968,0,3.565-1.615,3.574-3.607
	c0.001-0.954-0.343-1.806-0.999-2.47c-0.673-0.675-1.636-1.08-2.583-1.084c-0.912,0-1.9,0.413-2.573,1.085
	c-0.655,0.658-1.004,1.52-1.004,2.493c0,0.001,0,0.005,0,0.006c0,0.534,0.153,0.988,0.24,1.219
	c-0.123,0.126-0.695,0.711-0.695,0.711c-0.399,0.428-1.893,1.809-4.239,1.811c-1.572,0.006-3.043-0.599-4.142-1.696
	c-1.121-1.116-1.764-2.649-1.768-4.199c-0.004-1.579,0.61-3.066,1.729-4.187c1.113-1.117,2.598-1.756,4.193-1.761h13.71
	c1.695,0.004,2.651,1.54,2.654,2.601V316.092z M-336.235,305.608c0.002,3.252-2.626,5.905-5.862,5.908
	c-2.079,0.002-3.474-0.964-4.276-1.777c-0.002-0.001-0.523-0.519-0.691-0.691c0.111-0.308,0.228-0.703,0.228-1.255v-0.004
	c0-1.961-1.617-3.562-3.606-3.568c-0.955-0.004-1.807,0.343-2.468,0.997c-0.675,0.673-1.084,1.642-1.088,2.586
	c0,0.913,0.419,1.9,1.09,2.573c0.657,0.657,1.52,1.004,2.498,1c0.538,0,0.987-0.151,1.219-0.234
	c0.123,0.121,0.708,0.691,0.708,0.691c0.426,0.4,1.807,1.889,1.812,4.238c0,0.004,0,0.004,0,0.008c0,3.64-3.063,5.901-5.902,5.904
	c-1.569,0.005-3.059-0.611-4.18-1.729c-1.118-1.111-1.776-2.601-1.777-4.194v-13.708c0.001-1.694,1.561-2.623,2.624-2.626h13.756
	C-339.308,299.725-336.241,301.962-336.235,305.608z M-338.01,295.052c-1.113,1.115-2.602,1.745-4.195,1.748h-13.707
	c-1.695-0.002-2.618-1.527-2.619-2.593v-13.761h0.002c-0.005-1.557,0.611-3.095,1.729-4.218c0.767-0.769,2.115-1.69,4.141-1.692
	c1.563-0.001,3.101,0.633,4.207,1.742c1.094,1.093,1.697,2.555,1.701,4.117c0,0.002,0,0.006,0,0.008
	c0,2.075-0.964,3.467-1.777,4.269c0,0.004-0.519,0.523-0.687,0.693c-0.307-0.112-0.705-0.229-1.256-0.231
	c-1.961-0.001-3.562,1.617-3.57,3.605c-0.004,0.958,0.341,1.811,1,2.473c0.673,0.676,1.634,1.082,2.579,1.085
	c0.002,0,0.004,0,0.007,0c0.914,0,1.894-0.418,2.567-1.09c0.656-0.652,0.998-1.514,0.998-2.488c0-0.004,0-0.006,0-0.007
	c0-0.534-0.151-0.987-0.232-1.221c0.118-0.122,0.691-0.709,0.691-0.709c0.403-0.426,1.889-1.806,4.235-1.811
	c3.646-0.005,5.908,3.056,5.912,5.896C-336.282,292.443-336.895,293.931-338.01,295.052z"/>
</svg>
