<?xml version="1.0" encoding="utf-8"?>
<!-- Generator: Adobe Illustrator 19.0.0, SVG Export Plug-In . SVG Version: 6.00 Build 0)  -->
<svg version="1.1" xmlns="http://www.w3.org/2000/svg" xmlns:xlink="http://www.w3.org/1999/xlink" x="0px" y="0px"
	 viewBox="0 0 60 60" style="enable-background:new 0 0 60 60;" xml:space="preserve">
<style type="text/css">
	.st0{display:none;}
	.st1{display:inline;opacity:0.1;}
	.st2{opacity:0.4;fill:none;stroke:#000000;stroke-width:0.1;stroke-miterlimit:10;}
	.st3{opacity:0.1;fill:none;stroke:#000000;stroke-width:0.1;stroke-miterlimit:10;}
	.st4{fill:none;stroke:#000000;stroke-width:0.2;stroke-miterlimit:10;}
	.st5{display:inline;opacity:0.3;}
	.st6{display:inline;opacity:0.1;fill:none;stroke:#000000;stroke-width:0.2;stroke-miterlimit:10;}
	.st7{display:inline;opacity:0.6;}
	.st8{fill:#00B28E;}
	.st9{fill:#AC4142;}
	.st10{fill:#FFFFFF;}
</style>
<g id="Grid" class="st0">
	<g id="Keylines" class="st1">
		<g>
			<line class="st2" x1="-24" y1="-24" x2="84" y2="84"/>
			<line class="st3" x1="84" y1="-24" x2="-24" y2="84"/>
		</g>
		<g>
			<line class="st4" x1="-24" y1="-24" x2="84" y2="84"/>
			<line class="st4" x1="84" y1="-24" x2="-24" y2="84"/>
		</g>
	</g>
	<g id="Circle" class="st5">
		<g>
			<path d="M30,4.3c14.171,0,25.7,11.529,25.7,25.7S44.171,55.7,30,55.7S4.3,44.171,4.3,30S15.829,4.3,30,4.3 M30,4
				C15.641,4,4,15.641,4,30s11.641,26,26,26s26-11.641,26-26S44.359,4,30,4L30,4z"/>
		</g>
	</g>
	<g id="Inner_Circle" class="st5">
		<g>
			<path d="M30,12.3c9.76,0,17.7,7.94,17.7,17.7S39.76,47.7,30,47.7S12.3,39.76,12.3,30S20.24,12.3,30,12.3 M30,12
				c-9.941,0-18,8.059-18,18s8.059,18,18,18s18-8.059,18-18S39.941,12,30,12L30,12z"/>
		</g>
	</g>
	<path id="Horizontal_Rectangle" class="st6" d="M52,48H8c-2.209,0-4-1.791-4-4V16c0-2.209,1.791-4,4-4h44c2.209,0,4,1.791,4,4v28
		C56,46.209,54.209,48,52,48z"/>
	<path id="Vertical_Rectangle" class="st6" d="M12,52V8c0-2.209,1.791-4,4-4h28c2.209,0,4,1.791,4,4v44c0,2.209-1.791,4-4,4H16
		C13.791,56,12,54.209,12,52z"/>
	<path id="Square" class="st6" d="M48,52H12c-2.2,0-4-1.8-4-4V12c0-2.2,1.8-4,4-4h36c2.2,0,4,1.8,4,4v36C52,50.2,50.2,52,48,52z"/>
	<g id="Circular_Mask__x28_Pixel_x29_" class="st7">
		<g>
			<path class="st8" d="M30-5.4c19.52,0,35.4,15.88,35.4,35.4S49.52,65.4,30,65.4S-5.4,49.52-5.4,30S10.48-5.4,30-5.4 M30-6
				C10.118-6-6,10.118-6,30s16.118,36,36,36s36-16.118,36-36S49.882-6,30-6L30-6z"/>
		</g>
	</g>
</g>
<g id="Customs">
	<path class="st9" d="M51.83,11.791c0-2.188-1.774-3.962-3.962-3.962H11.791c-2.188,0-3.962,1.774-3.962,3.962v36.077
		c0,2.188,1.774,3.962,3.962,3.962h36.077c2.188,0,3.962-1.774,3.962-3.962V11.791z"/>
	<g>
		<path class="st10" d="M16.261,26.186h-2.199c-1.139,0-2.062,0.968-2.062,2.163v10.381c0,1.194,0.923,2.162,2.062,2.162h2.199
			V26.186z"/>
		<path class="st10" d="M16.261,40.891v2.199c0,1.139,0.968,2.062,2.162,2.062h10.381c1.194,0,2.162-0.923,2.162-2.062v-2.199
			H16.261z"/>
		<path class="st10" d="M42.23,18.627h-6.38h-0.727l-1.889,1.856h1.889v0.413c0,2.163,1.754,3.916,3.917,3.916
			c2.164,0,3.917-1.754,3.917-3.916v-2.269H42.23z"/>
		<polygon class="st10" points="42.957,17.39 34.952,17.39 33.234,14.848 42.957,14.848 		"/>
		<path class="st10" d="M45.938,26.186H45.87h-0.308l-9.853,12.507h8.03v2.198H33.646v4.261h10.093H48v-4.261v-2.162v-7.901v-2.48
			C48,27.154,47.077,26.186,45.938,26.186z"/>
		<path class="st10" d="M42.545,26.186h-9.311h-0.953v0.005c-0.425-0.008-0.86,0.179-1.226,0.642
			c-2.732,3.454-5.464,6.909-8.196,10.363c-1.467,1.855,1.14,4.5,2.624,2.623c2.583-3.267,5.167-6.534,7.751-9.801v7.988
			L42.545,26.186z"/>
	</g>
</g>
</svg>
